<svg xmlns="http://www.w3.org/2000/svg" viewBox="0 0 305.01 421.31"><defs><style>.cls-1,.cls-3{fill:none;stroke:#fff;stroke-miterlimit:10;}.cls-1{stroke-width:8px;}.cls-2{fill:#fff;}.cls-3{stroke-width:5px;}</style></defs><title>mr.topper</title><g id="Layer_2" data-name="Layer 2"><g id="Layer_1-2" data-name="Layer 1"><path class="cls-1" d="M4.66,290.71a149.62,149.62,0,0,0,295.68,0Z"/><polygon class="cls-1" points="253.88 94.78 253.88 121.94 52.57 121.94 52.57 94.78 90.46 94.78 90.46 4 217.85 4 217.85 94.78 253.88 94.78"/><path class="cls-2" d="M32.61,288.91c-2-5.33-2.6-10.08.51-15.13,1.29-2.09,3-3.73,4.44-5.71.78-1.1,1.25-3,2.17-3.85,4.45-4,6.65,4.57,9,7a9.68,9.68,0,0,0,5.7,3c3.44.55,6.76-.36,10.16-.79,4.28-.54,10.61-1.8,11.47,3.73.29,1.89-.24,4,1,5.67a4.1,4.1,0,0,0,2,1.43c-.41-.13,7.16.71,3.92,2.48-1.73,1-.16,2.37,1.25,1.59,2-1.07,3.18-3.47,1-5.24-1-.8-3.06-.87-4.18-1.43-2.84-1.41-1.85-3.26-2.24-6.11-1.13-8.17-14.67-3.61-19.71-3.27-8.9.6-8.3-5.38-13.11-10.07-2-2-4.61-2.73-7-1-2.18,1.61-2.94,4.63-4.47,6.76-1.71,2.38-3.76,4.29-5.11,6.93-2.56,5-1.74,9.69.14,14.78.46,1.24,3.34.43,2.9-.78Z"/><path class="cls-2" d="M87.17,278.33c-1-.47,2.08-3.58,2.61-4,2.44-1.75,3.12-1,4.85.79a8.67,8.67,0,0,0,6.79,3c3.83.14,10.56-2.81,13.1.52.66.87.62,1.92,1.45,2.77,1.23,1.27,2.58.82,3,3,.15.78,3.07.09,2.9-.78-.44-2.24-1.84-1.86-3.2-3.32-1.23-1.3-1.07-3.23-2.57-4.27-3.7-2.57-10.09,1.14-13.93.48-2.63-.46-3.33-1.39-5.26-3-1-.82-1.43-1.8-2.82-2.21a5.49,5.49,0,0,0-2.91.08c-2.71.79-6.84,4.65-7.1,7.47,0,.23,0,.3.26.4l.46.22c.71.33,3.37-.77,2.35-1.24Z"/><path class="cls-2" d="M135,284.7c0-4-1.3-9.57,2-12.5.69-.61,2.08-2,2.93-2.26,2.75-.76,1.79,2.15,1.88,3.68.34,6.1,10.45,3.89,10.24,9.1,0,1.17,2.86.58,2.9-.37.18-4.46-4.7-4.46-8-6-3.07-1.42-1.83-3.59-2.19-6.18-.2-1.46-.67-2.28-2.14-2.58-2.66-.54-5.75,2.27-7.56,3.8-4.31,3.64-3,8.87-3,14.06,0,.88,2.9.34,2.9-.78Z"/><path class="cls-2" d="M154.78,285.05c2.72-1.88,5.14-4.16,7.9-6,1.41-.93,3.12-2.33,4.8-2.68,5.89-1.25,3.88.58,6.31,2.72a11.42,11.42,0,0,0,4.89,2.11c2.61.48,7.15-1.1,7.17,2.74,0,.92,2.9.37,2.9-.78,0-3-1.65-3.41-4.42-3.56s-5.71.1-8-2c-1.38-1.28-1.86-2.85-3.76-3.49-6.62-2.25-15,6.82-19.63,10-1.61,1.11.87,1.54,1.81.89Z"/><path class="cls-2" d="M197,282.91c.78-2.88,5.9-9.28,9-10.2,5.23-1.56,4.42,2.82,6,5.79,1,2,2.92,2.7,4.92,3.45,4,1.51,7,2.64,10.3,5.46.88.76,3.47-.54,2.26-1.58a22.49,22.49,0,0,0-5.91-4.08c-2.95-1.22-6.3-1.33-8.25-4-1.79-2.49-1.36-7-4.88-8C204,268,195.4,278.18,194,283.18c-.35,1.27,2.6.9,2.92-.27Z"/><path class="cls-2" d="M256.39,288.51c.33-2.43,4.94-6.59,6.72-8.19,2.3-2.07,3.8-3.22,6.53-1.09,1.51,1.18,2.55,2.73,3.93,4a9.72,9.72,0,0,0,6,2.73c3,.33,11.56-1.59,8.79,4.09-.39.8,2.45.52,2.89-.38,1.78-3.65-.37-5.38-3.86-5.35-4.94,0-8.29.41-12-3.29-1.7-1.68-3.34-3.72-5.62-4.68-2.84-1.2-5.36-.19-7.49,1.88-1.65,1.6-3,3.51-4.63,5.18s-3.76,3.05-4.09,5.46c-.15,1.09,2.76.57,2.89-.38Z"/><circle class="cls-3" cx="202.39" cy="174.99" r="35.53"/><line class="cls-3" x1="237.92" y1="169.78" x2="239.59" y2="264.81"/><path class="cls-3" d="M93.75,234.84s38.07,36.77,58,0c-2.93-17.84-19.32-16.93-29,0C122.77,234.84,117.18,243.63,93.75,234.84Z"/><path class="cls-3" d="M211.26,234.84s-38.07,36.77-58,0c2.93-17.84,19.32-16.93,29,0C182.24,234.84,187.84,243.63,211.26,234.84Z"/></g></g></svg>